# xmcd
#
# Track frame offsets:
#	150
#	16567
#	31663
#	46681
#	61529
#	75485
#	95262
#
# Disc length: 1370 seconds
#
# Revision: 0
# Processed by: cddbd v1.5.2PL0 Copyright (c) Steve Scherf et al.
# Submitted via: EZCDAudioConverter 7.1.5.1
#
DISCID=33055807
DTITLE=Sister Hazel - Wind
DYEAR=2018
DGENRE=
TTITLE0=Come A Day
TTITLE1=Small Town Living
TTITLE2=Whirlwind Girl
TTITLE3=In Two
TTITLE4=You'll Be Safe Here
TTITLE5=Midnight Again
TTITLE6=Elements II (I'm Free)
EXTD=
EXTT0=
EXTT1=
EXTT2=
EXTT3=
EXTT4=
EXTT5=
EXTT6=
PLAYORDER=
